<?xml version="1.0" encoding="UTF-8" standalone="no"?>
<svg
   xmlns:dc="http://purl.org/dc/elements/1.1/"
   xmlns:cc="http://creativecommons.org/ns#"
   xmlns:rdf="http://www.w3.org/1999/02/22-rdf-syntax-ns#"
   xmlns:svg="http://www.w3.org/2000/svg"
   xmlns="http://www.w3.org/2000/svg"
   xmlns:sodipodi="http://sodipodi.sourceforge.net/DTD/sodipodi-0.dtd"
   xmlns:inkscape="http://www.inkscape.org/namespaces/inkscape"
   inkscape:export-ydpi="230.39999"
   inkscape:export-xdpi="230.39999"
   inkscape:export-filename="/Users/c/top/frame-server/dist/images/favicon.png"
   id="svg3396"
   version="1.1"
   inkscape:version="1.0 (4035a4f, 2020-05-01)"
   xml:space="preserve"
   width="60"
   height="60"
   viewBox="0 0 60 60"
   sodipodi:docname="ll-favicon1.svg"><metadata
     id="metadata3402"><rdf:RDF><cc:Work
         rdf:about=""><dc:format>image/svg+xml</dc:format><dc:type
           rdf:resource="http://purl.org/dc/dcmitype/StillImage" /><dc:title /></cc:Work></rdf:RDF></metadata><defs
     id="defs3400" /><sodipodi:namedview
     inkscape:pagecheckerboard="true"
     pagecolor="#ffffff"
     bordercolor="#666666"
     borderopacity="1"
     objecttolerance="1"
     gridtolerance="1"
     guidetolerance="1"
     inkscape:pageopacity="0"
     inkscape:pageshadow="2"
     inkscape:window-width="1440"
     inkscape:window-height="771"
     id="namedview3398"
     showgrid="true"
     inkscape:zoom="10.016667"
     inkscape:cx="10.782031"
     inkscape:cy="30"
     inkscape:window-x="0"
     inkscape:window-y="25"
     inkscape:window-maximized="0"
     inkscape:current-layer="g3404"
     fit-margin-top="0"
     fit-margin-left="0"
     fit-margin-right="0"
     fit-margin-bottom="0"
     inkscape:document-rotation="0"
     inkscape:showpageshadow="false"><inkscape:grid
       type="xygrid"
       id="grid21"
       spacingx="4"
       spacingy="4"
       originx="-140"
       originy="-40" /></sodipodi:namedview><g
     style="display:none"
     inkscape:label="bc-front-white"
     id="layer1"
     inkscape:groupmode="layer"><rect
       y="0.099833608"
       x="0.099833608"
       height="59.900166"
       width="59.900166"
       id="rect111"
       style="fill:#ffffff" /></g><g
     id="g3404"
     inkscape:groupmode="layer"
     inkscape:label="bc-front"
     transform="matrix(1.25,0,0,-1.25,-140,100)"
     style="display:inline"><path
       style="stroke-width:1"
       d="m 170,102.5 a 30,30 0 0 0 -6,0.63867 v 58.75391 a 30,30 0 0 0 6,0.60742 30,30 0 0 0 6.94141,-0.84766 V 103.34961 A 30,30 0 0 0 170,102.5 Z m -12.21094,2.63867 A 30,30 0 0 0 140,132.5 a 30,30 0 0 0 17.78906,27.375 z m 25.56446,0.51172 v 53.67383 A 30,30 0 0 0 200,132.5 30,30 0 0 0 183.35352,105.65039 Z"
       transform="matrix(0.8,0,0,-0.8,0,162)"
       id="path16"
       inkscape:connector-curvature="0"
       inkscape:export-filename="/Users/chrisaaker/root/repo_fave/client-react/dist/_images/favicon.png"
       inkscape:export-xdpi="102.4"
       inkscape:export-ydpi="102.4" /><path
       style="fill:#000000;stroke-width:0.00998336;fill-opacity:1"
       d="m 27.903494,59.887074 c -0.852448,-0.07097 -2.820321,-0.333086 -3.34424,-0.445446 L 24.0599,59.334535 V 29.991728 c 0,-16.138545 0.03369,-29.34310646 0.07488,-29.34347056 0.04118,-3.641e-4 0.578816,-0.0874312 1.194745,-0.19348251 3.355106,-0.57768623 7.041064,-0.50285615 10.535703,0.21388953 L 36.93844,0.88877857 V 30 59.111221 l -1.073212,0.22022 c -0.590266,0.121121 -1.567387,0.288154 -2.171381,0.371185 -1.075709,0.147876 -4.80336,0.266618 -5.790349,0.184448 z"
       id="path1016"
       transform="matrix(0.8,0,0,-0.8,112,80)" /><path
       inkscape:export-ydpi="230.39999"
       inkscape:export-xdpi="230.39999"
       inkscape:export-filename="/Users/c/top/frame-server/dist/images/favicon.png"
       style="fill:#000000;fill-opacity:1;stroke-width:0.00998336"
       d="M 43.42762,29.94309 V 3.2306074 l 0.773711,0.4232267 c 2.526233,1.3818725 4.822422,3.0978794 6.866495,5.1315243 1.637604,1.6292496 2.732329,2.9660936 3.964744,4.8416196 2.6438,4.023413 4.273015,8.636699 4.771214,13.510166 0.160041,1.565549 0.07416,5.639279 -0.148741,7.055868 -1.373009,8.725602 -6.069797,16.086607 -13.282331,20.816634 -1.025329,0.672418 -2.727817,1.645927 -2.878422,1.645927 -0.03667,0 -0.06667,-12.020617 -0.06667,-26.712483 z"
       id="path1018"
       transform="matrix(0.8,0,0,-0.8,112,80)" /><path
       style="fill:#000000;fill-opacity:1;stroke-width:0.00998336"
       d="M 16.173045,56.498474 C 10.531323,53.568134 6.0148187,48.950075 3.1943538,43.227953 1.0412534,38.859771 0.09983461,34.835546 0.09983461,30 c 0,-2.886101 0.24811826,-4.853149 0.95446919,-7.566907 C 2.9482052,15.156839 7.759019,8.616696 14.122549,4.6672439 c 0.862849,-0.5355171 3.447458,-1.9218187 3.583023,-1.9218187 0.03565,0 0.06481,12.2645588 0.06481,27.2545748 0,14.990016 -0.03369,27.253626 -0.07487,27.252466 -0.04118,-0.0012 -0.72629,-0.340455 -1.522463,-0.753992 z"
       id="path1020"
       transform="matrix(0.8,0,0,-0.8,112,80)" /></g></svg>
